<svg width="96" height="96" viewBox="0 0 96 96" fill="none" xmlns="http://www.w3.org/2000/svg">
  <!-- Android notification small icon template:
       - White glyph only
       - Transparent background
       - Brand-matched helmet + house mark -->
  <g fill="#FFFFFF" fill-rule="evenodd" clip-rule="evenodd">
    <!-- Hard-hat silhouette -->
    <path d="M18 38c0-12 10-22 22-22h16c12 0 22 10 22 22v5h4c3 0 5 2 5 5v3c0 3-2 5-5 5H14c-3 0-5-2-5-5v-3c0-3 2-5 5-5h4v-5zm30-16h4v20h-4V22z"/>

    <!-- House outline with doorway -->
    <path d="M48 58l22 16v8H26v-8l22-16zm0 7L33 76h30L48 65z"/>
    <path d="M44 74h8v12h-8V74z"/>
  </g>
</svg>
